<svg preserveAspectRatio="none" width="100%" height="100%" overflow="visible" style="display: block;" viewBox="0 0 21.0475 21.0475" fill="none" xmlns="http://www.w3.org/2000/svg">
<path id="Icon" d="M6.65685 14.3906L1 20.0475M9.97454 5.41611L8.41365 6.977C8.28633 7.10432 8.22267 7.16798 8.15014 7.21857C8.08576 7.26347 8.01631 7.30063 7.94324 7.32929C7.86092 7.36159 7.77264 7.37924 7.59607 7.41456L3.93161 8.14745C2.9793 8.33791 2.50315 8.43314 2.28039 8.68419C2.08632 8.9029 1.9977 9.19559 2.03786 9.48522C2.08395 9.81767 2.42731 10.161 3.11402 10.8477L10.1998 17.9335C10.8865 18.6202 11.2298 18.9636 11.5623 19.0096C11.8519 19.0498 12.1446 18.9612 12.3633 18.7671C12.6144 18.5444 12.7096 18.0682 12.9001 17.1159L13.633 13.4514C13.6683 13.2749 13.6859 13.1866 13.7182 13.1043C13.7469 13.0312 13.784 12.9617 13.8289 12.8974C13.8795 12.8248 13.9432 12.7612 14.0705 12.6339L15.6314 11.073C15.7128 10.9916 15.7535 10.9509 15.7982 10.9153C15.838 10.8837 15.8801 10.8553 15.9242 10.8301C15.9738 10.8017 16.0267 10.7791 16.1325 10.7337L18.6269 9.66469C19.3546 9.35282 19.7184 9.19689 19.8837 8.9449C20.0282 8.72455 20.0799 8.45605 20.0276 8.19777C19.9677 7.90243 19.6878 7.62252 19.128 7.06269L13.9848 1.91955C13.425 1.35973 13.1451 1.07981 12.8497 1.01994C12.5915 0.967586 12.323 1.01929 12.1026 1.16383C11.8506 1.3291 11.6947 1.69295 11.3828 2.42065L10.3138 4.91501C10.2685 5.02083 10.2458 5.07374 10.2174 5.12335C10.1923 5.16742 10.1638 5.20951 10.1322 5.24926C10.0967 5.294 10.0559 5.3347 9.97454 5.41611Z" stroke="var(--stroke-0, black)" stroke-width="2" stroke-linecap="round" stroke-linejoin="round"/>
</svg>
