<svg preserveAspectRatio="none" width="100%" height="100%" overflow="visible" style="display: block;" viewBox="0 0 20 19.2351" fill="none" xmlns="http://www.w3.org/2000/svg">
<path id="Icon" d="M14 14.6175L19 9.61753M19 9.61753L14 4.61753M19 9.61753H7M10 14.6175C10 14.9131 10 15.0609 9.98901 15.1889C9.87482 16.5195 8.89486 17.6144 7.58503 17.8748C7.45903 17.8999 7.31202 17.9162 7.01835 17.9488L5.99694 18.0623C4.46248 18.2328 3.69521 18.3181 3.08566 18.123C2.27293 17.8629 1.60942 17.2691 1.26118 16.49C1 15.9057 1 15.1338 1 13.5898V5.64523C1 4.1013 1 3.32933 1.26118 2.74505C1.60942 1.96601 2.27293 1.37214 3.08566 1.11206C3.69521 0.917003 4.46246 1.00225 5.99694 1.17275L7.01835 1.28624C7.31212 1.31888 7.45901 1.3352 7.58503 1.36026C8.89486 1.62069 9.87482 2.71557 9.98901 4.04614C10 4.17417 10 4.32196 10 4.61753" stroke="var(--stroke-0, black)" stroke-width="2" stroke-linecap="round" stroke-linejoin="round"/>
</svg>
