<svg preserveAspectRatio="none" width="100%" height="100%" overflow="visible" style="display: block;" viewBox="0 0 22 22" fill="none" xmlns="http://www.w3.org/2000/svg">
<path id="Icon" d="M11 7H11.01M11 15H11.01M6 11H16M11.5 7C11.5 7.27614 11.2761 7.5 11 7.5C10.7239 7.5 10.5 7.27614 10.5 7C10.5 6.72386 10.7239 6.5 11 6.5C11.2761 6.5 11.5 6.72386 11.5 7ZM11.5 15C11.5 15.2761 11.2761 15.5 11 15.5C10.7239 15.5 10.5 15.2761 10.5 15C10.5 14.7239 10.7239 14.5 11 14.5C11.2761 14.5 11.5 14.7239 11.5 15ZM21 11C21 16.5228 16.5228 21 11 21C5.47715 21 1 16.5228 1 11C1 5.47715 5.47715 1 11 1C16.5228 1 21 5.47715 21 11Z" stroke="var(--stroke-0, black)" stroke-width="2" stroke-linecap="round" stroke-linejoin="round"/>
</svg>
