<svg preserveAspectRatio="none" width="100%" height="100%" overflow="visible" style="display: block;" viewBox="0 0 20 21.0564" fill="none" xmlns="http://www.w3.org/2000/svg">
<path id="Icon" d="M4 15.5282C4 15.8795 4 16.0552 4.01567 16.2079C4.14575 17.4756 5.0626 18.5229 6.30206 18.8193C6.45134 18.8551 6.6255 18.8783 6.97368 18.9247L13.5656 19.8036C15.442 20.0538 16.3803 20.1789 17.1084 19.8894C17.7478 19.6352 18.2803 19.1689 18.6168 18.5688C19 17.8853 19 16.9388 19 15.0457V6.01069C19 4.11764 19 3.17112 18.6168 2.48759C18.2803 1.88748 17.7478 1.42125 17.1084 1.16704C16.3803 0.877504 15.442 1.0026 13.5656 1.25279L6.97368 2.13171C6.62546 2.17814 6.45135 2.20136 6.30206 2.23707C5.0626 2.53356 4.14575 3.58078 4.01567 4.84855C4 5.00125 4 5.1769 4 5.52821M10 6.52821L14 10.5282M14 10.5282L10 14.5282M14 10.5282H1" stroke="var(--stroke-0, black)" stroke-width="2" stroke-linecap="round" stroke-linejoin="round"/>
</svg>
