<svg preserveAspectRatio="none" width="100%" height="100%" overflow="visible" style="display: block;" viewBox="0 0 21.5268 19.7578" fill="none" xmlns="http://www.w3.org/2000/svg">
<path id="Icon" d="M2.14957 3.66687C1.39323 2.82155 1.01506 2.39889 1.00079 2.03968C0.988399 1.72764 1.12249 1.42772 1.36331 1.22889C1.64051 1 2.20766 1 3.34195 1H18.1849C19.3192 1 19.8863 1 20.1635 1.22889C20.4043 1.42772 20.5384 1.72764 20.526 2.03968C20.5118 2.39889 20.1336 2.82155 19.3773 3.66688L13.671 10.0444C13.5203 10.2129 13.4449 10.2972 13.3911 10.3931C13.3435 10.4781 13.3085 10.5697 13.2873 10.6648C13.2634 10.7721 13.2634 10.8852 13.2634 11.1113V16.4584C13.2634 16.6539 13.2634 16.7517 13.2319 16.8363C13.204 16.911 13.1587 16.9779 13.0997 17.0315C13.0329 17.0922 12.9421 17.1285 12.7605 17.2012L9.36053 18.5612C8.99299 18.7082 8.80922 18.7817 8.66169 18.751C8.53268 18.7242 8.41947 18.6476 8.34667 18.5377C8.26342 18.4122 8.26342 18.2142 8.26342 17.8184V11.1113C8.26342 10.8852 8.26342 10.7721 8.23954 10.6648C8.21836 10.5697 8.18338 10.4781 8.13571 10.3931C8.08196 10.2972 8.00657 10.2129 7.85581 10.0444L2.14957 3.66687Z" stroke="var(--stroke-0, black)" stroke-width="2" stroke-linecap="round" stroke-linejoin="round"/>
</svg>
