<svg preserveAspectRatio="none" width="100%" height="100%" overflow="visible" style="display: block;" viewBox="0 0 21.9999 19.6685" fill="none" xmlns="http://www.w3.org/2000/svg">
<path id="Icon" d="M8.00012 9.00187L10.0001 11.0019L14.5001 6.50187M10.9933 3.13769C8.99392 0.800272 5.65986 0.171515 3.15481 2.31189C0.64976 4.45226 0.297084 8.03085 2.26431 10.5623C3.75021 12.4743 7.97141 16.3128 9.94813 18.0768C10.3115 18.401 10.4932 18.5631 10.7059 18.627C10.8906 18.6824 11.0959 18.6824 11.2806 18.627C11.4933 18.5631 11.675 18.401 12.0384 18.0768C14.0151 16.3128 18.2363 12.4743 19.7222 10.5623C21.6894 8.03085 21.3798 4.42974 18.8317 2.31189C16.2836 0.194029 12.9926 0.800272 10.9933 3.13769Z" stroke="var(--stroke-0, black)" stroke-width="2" stroke-linecap="round" stroke-linejoin="round"/>
</svg>
