<svg preserveAspectRatio="none" width="100%" height="100%" overflow="visible" style="display: block;" viewBox="0 0 22.0004 22.0004" fill="none" xmlns="http://www.w3.org/2000/svg">
<g id="Icon">
<path d="M6.39156 1.46882C6.56451 1.29587 6.65099 1.20939 6.75191 1.14755C6.84138 1.09272 6.93892 1.05232 7.04096 1.02782C7.15605 1.00019 7.27834 1.00019 7.52293 1.00019H14.4774C14.722 1.00019 14.8443 1.00019 14.9594 1.02782C15.0615 1.05232 15.159 1.09272 15.2485 1.14755C15.3494 1.20939 15.4359 1.29587 15.6088 1.46882L20.5316 6.39156C20.7045 6.56451 20.791 6.65099 20.8528 6.75191C20.9077 6.84138 20.9481 6.93892 20.9726 7.04096C21.0002 7.15605 21.0002 7.27834 21.0002 7.52293V14.4774C21.0002 14.722 21.0002 14.8443 20.9726 14.9594C20.9481 15.0615 20.9077 15.159 20.8528 15.2485C20.791 15.3494 20.7045 15.4359 20.5316 15.6088L15.6088 20.5316C15.4359 20.7045 15.3494 20.791 15.2485 20.8528C15.159 20.9077 15.0615 20.9481 14.9594 20.9726C14.8443 21.0002 14.722 21.0002 14.4774 21.0002H7.52293C7.27834 21.0002 7.15605 21.0002 7.04096 20.9726C6.93892 20.9481 6.84138 20.9077 6.75191 20.8528C6.65099 20.791 6.56451 20.7045 6.39156 20.5316L1.46882 15.6088C1.29587 15.4359 1.20939 15.3494 1.14755 15.2485C1.09272 15.159 1.05232 15.0615 1.02782 14.9594C1.00019 14.8443 1.00019 14.722 1.00019 14.4774V7.52293C1.00019 7.27834 1.00019 7.15605 1.02782 7.04096C1.05232 6.93892 1.09272 6.84138 1.14755 6.75191C1.20939 6.65099 1.29587 6.56451 1.46882 6.39156L6.39156 1.46882Z" stroke="var(--stroke-0, black)" stroke-width="2" stroke-linecap="round" stroke-linejoin="round"/>
<path fill-rule="evenodd" clip-rule="evenodd" d="M10.9968 8.0681C9.99709 6.89939 8.33006 6.58501 7.07754 7.6552C5.82501 8.72538 5.64868 10.5147 6.63229 11.7804C7.2623 12.5911 8.87578 14.0944 9.95443 15.0706C10.3129 15.3949 10.4921 15.5571 10.7068 15.6222C10.8913 15.6781 11.1022 15.6781 11.2868 15.6222C11.5014 15.5571 11.6807 15.3949 12.0391 15.0706C13.1178 14.0944 14.7312 12.5911 15.3612 11.7804C16.3449 10.5147 16.19 8.71413 14.916 7.6552C13.6419 6.59627 11.9964 6.89939 10.9968 8.0681Z" stroke="var(--stroke-0, black)" stroke-width="2" stroke-linecap="round" stroke-linejoin="round"/>
</g>
</svg>
