<svg preserveAspectRatio="none" width="100%" height="100%" overflow="visible" style="display: block;" viewBox="0 0 12 12" fill="none" xmlns="http://www.w3.org/2000/svg">
<path id="Vector" d="M1 0L11 4.37114e-07C11.5523 4.61255e-07 12 0.447716 12 1V11C12 11.5523 11.5523 12 11 12C10.4477 12 10 11.5523 10 11V3.41406L2.70703 10.707C2.31651 11.0976 1.68349 11.0976 1.29297 10.707C0.902444 10.3165 0.902444 9.68349 1.29297 9.29297L8.58594 2L1 2C0.447715 2 -2.41411e-08 1.55228 0 1C2.41411e-08 0.447715 0.447715 -2.41412e-08 1 0Z" fill="var(--fill-0, #C4C7CE)"/>
</svg>
