<svg preserveAspectRatio="none" width="100%" height="100%" overflow="visible" style="display: block;" viewBox="0 0 13.2404 11.9304" fill="none" xmlns="http://www.w3.org/2000/svg">
<path id="Vector" d="M6.03862 0.285885C6.32873 -0.0953351 6.91153 -0.0952549 7.20171 0.285885L7.25933 0.373776L13.1451 10.8376C13.42 11.3265 13.0672 11.9304 12.5064 11.9304H0.733935C0.173267 11.9302 -0.179651 11.3264 0.0952633 10.8376L5.98101 0.373776L6.03862 0.285885ZM1.7603 10.5974H11.48L6.61968 1.95678L1.7603 10.5974ZM5.9605 9.2644V9.25756C5.9605 8.88947 6.25846 8.59073 6.62651 8.59057C6.9947 8.59057 7.29351 8.88937 7.29351 9.25756V9.2644C7.29334 9.63245 6.9946 9.93042 6.62651 9.93042C6.25856 9.93025 5.96066 9.63235 5.9605 9.2644ZM5.9605 7.59741V4.93042C5.96068 4.56249 6.25858 4.26456 6.62651 4.2644C6.99459 4.2644 7.29332 4.56239 7.29351 4.93042V7.59741C7.29351 7.9656 6.9947 8.2644 6.62651 8.2644C6.25846 8.26424 5.9605 7.9655 5.9605 7.59741Z" fill="var(--fill-0, white)"/>
</svg>
