<svg preserveAspectRatio="none" width="100%" height="100%" overflow="visible" style="display: block;" viewBox="0 0 20 22.0001" fill="none" xmlns="http://www.w3.org/2000/svg">
<path id="Icon" d="M6 7.00006L2.09346 11.6879C1.74465 12.1065 1.57024 12.3158 1.56758 12.4925C1.56526 12.6462 1.63373 12.7924 1.75326 12.8889C1.89075 13.0001 2.16318 13.0001 2.70803 13.0001H10L9 21.0001L14 15.0001M13.65 9.00006H17.292C17.8368 9.00006 18.1093 9.00006 18.2467 9.11116C18.3663 9.20775 18.4347 9.35394 18.4324 9.50759C18.4298 9.68435 18.2554 9.89363 17.9065 10.3122L16.5502 11.9398M8.57275 3.91271L11 1.00006L10.4002 5.79777M19 20.0001L1 2.00006" stroke="var(--stroke-0, black)" stroke-width="2" stroke-linecap="round" stroke-linejoin="round"/>
</svg>
