<svg preserveAspectRatio="none" width="100%" height="100%" overflow="visible" style="display: block;" viewBox="0 0 22 21.1213" fill="none" xmlns="http://www.w3.org/2000/svg">
<path id="Icon" d="M5.00003 5.00003L9.50003 9.50003M5.00003 5.00003H2.00003L1.00003 2.00003L2.00003 1.00003L5.00003 2.00003V5.00003ZM18.259 1.74104L15.6314 4.36866C15.2354 4.76467 15.0374 4.96268 14.9632 5.19101C14.8979 5.39185 14.8979 5.6082 14.9632 5.80904C15.0374 6.03737 15.2354 6.23538 15.6314 6.6314L15.8687 6.86866C16.2647 7.26467 16.4627 7.46268 16.691 7.53687C16.8919 7.60213 17.1082 7.60213 17.309 7.53687C17.5374 7.46268 17.7354 7.26467 18.1314 6.86866L20.5893 4.41074C20.854 5.05491 21 5.76042 21 6.50003C21 9.53759 18.5376 12 15.5 12C15.1338 12 14.776 11.9642 14.4298 11.896C13.9436 11.8001 13.7006 11.7521 13.5532 11.7668C13.3966 11.7824 13.3193 11.8059 13.1805 11.8802C13.05 11.9501 12.919 12.0811 12.6571 12.343L5.50003 19.5C4.6716 20.3284 3.32846 20.3284 2.50003 19.5C1.6716 18.6716 1.6716 17.3284 2.50003 16.5L9.65706 9.343C9.919 9.08105 10.05 8.95008 10.1198 8.81951C10.1941 8.68071 10.2176 8.6035 10.2332 8.44684C10.2479 8.29948 10.2 8.05641 10.1041 7.57027C10.0358 7.22408 10 6.86624 10 6.50003C10 3.46246 12.4625 1.00003 15.5 1.00003C16.5055 1.00003 17.448 1.26985 18.259 1.74104ZM11.0001 14L16.5 19.4999C17.3284 20.3283 18.6716 20.3283 19.5 19.4999C20.3284 18.6715 20.3284 17.3283 19.5 16.4999L14.9753 11.9753C14.655 11.945 14.3427 11.8872 14.0408 11.8044C13.6517 11.6976 13.225 11.7751 12.9397 12.0604L11.0001 14Z" stroke="var(--stroke-0, black)" stroke-width="2" stroke-linecap="round" stroke-linejoin="round"/>
</svg>
