<svg preserveAspectRatio="none" width="100%" height="100%" overflow="visible" style="display: block;" viewBox="0 0 20 20" fill="none" xmlns="http://www.w3.org/2000/svg">
<path id="Icon" d="M13 2.60001C13 2.03995 13 1.75993 12.891 1.54601C12.7951 1.35785 12.6422 1.20487 12.454 1.109C12.2401 1.00001 11.9601 1.00001 11.4 1.00001H8.6C8.03995 1.00001 7.75993 1.00001 7.54601 1.109C7.35785 1.20487 7.20487 1.35785 7.109 1.54601C7.00001 1.75993 7.00001 2.03995 7.00001 2.6V5.4C7.00001 5.96006 7 6.24008 6.89101 6.45399C6.79514 6.64216 6.64216 6.79514 6.454 6.89101C6.24008 7 5.96006 7 5.4 7H2.60001C2.03995 7 1.75993 7 1.54601 7.109C1.35785 7.20487 1.20487 7.35785 1.109 7.54601C1.00001 7.75993 1.00001 8.03995 1.00001 8.6V11.4C1.00001 11.9601 1.00001 12.2401 1.109 12.454C1.20487 12.6422 1.35785 12.7951 1.54601 12.891C1.75993 13 2.03995 13 2.6 13H5.40001C5.96006 13 6.24008 13 6.454 13.109C6.64216 13.2049 6.79514 13.3579 6.89101 13.546C7 13.7599 7.00001 14.04 7.00001 14.6V17.4C7.00001 17.9601 7.00001 18.2401 7.109 18.454C7.20487 18.6422 7.35785 18.7951 7.54601 18.891C7.75993 19 8.03995 19 8.6 19H11.4C11.9601 19 12.2401 19 12.454 18.891C12.6422 18.7951 12.7951 18.6422 12.891 18.454C13 18.2401 13 17.9601 13 17.4V14.6C13 14.04 13 13.7599 13.109 13.546C13.2049 13.3579 13.3579 13.2049 13.546 13.109C13.7599 13 14.04 13 14.6 13H17.4C17.9601 13 18.2401 13 18.454 12.891C18.6422 12.7951 18.7951 12.6422 18.891 12.454C19 12.2401 19 11.9601 19 11.4V8.6C19 8.03995 19 7.75993 18.891 7.54601C18.7951 7.35785 18.6422 7.20487 18.454 7.109C18.2401 7.00001 17.9601 7.00001 17.4 7.00001L14.6 7C14.04 7 13.7599 7 13.546 6.89101C13.3579 6.79514 13.2049 6.64216 13.109 6.45399C13 6.24008 13 5.96006 13 5.4V2.60001Z" stroke="var(--stroke-0, black)" stroke-width="2" stroke-linecap="round" stroke-linejoin="round"/>
</svg>
