<svg preserveAspectRatio="none" width="100%" height="100%" overflow="visible" style="display: block;" viewBox="0 0 20.0001 20.0001" fill="none" xmlns="http://www.w3.org/2000/svg">
<path id="Icon" d="M13 6.0001H6.6C6.03995 6.0001 5.75992 6.0001 5.54601 5.89111C5.35785 5.79523 5.20487 5.64225 5.10899 5.45409C5 5.24018 5 4.96015 5 4.4001V1.0001M15 19.0001V12.6001C15 12.04 15 11.76 14.891 11.5461C14.7951 11.3579 14.6422 11.205 14.454 11.1091C14.2401 11.0001 13.9601 11.0001 13.4 11.0001H6.6C6.03995 11.0001 5.75992 11.0001 5.54601 11.1091C5.35785 11.205 5.20487 11.3579 5.10899 11.5461C5 11.76 5 12.04 5 12.6001V19.0001M19 7.32559V14.2001C19 15.8803 19 16.7203 18.673 17.3621C18.3854 17.9266 17.9265 18.3855 17.362 18.6731C16.7202 19.0001 15.8802 19.0001 14.2 19.0001H5.8C4.11984 19.0001 3.27976 19.0001 2.63803 18.6731C2.07354 18.3855 1.6146 17.9266 1.32698 17.3621C1 16.7203 1 15.8803 1 14.2001V5.8001C1 4.11994 1 3.27987 1.32698 2.63813C1.6146 2.07364 2.07354 1.6147 2.63803 1.32708C3.27976 1.0001 4.11984 1.0001 5.8 1.0001H12.6745C13.1637 1.0001 13.4083 1.0001 13.6385 1.05536C13.8425 1.10436 14.0376 1.18516 14.2166 1.29482C14.4184 1.4185 14.5914 1.59146 14.9373 1.93736L18.0627 5.06284C18.4086 5.40875 18.5816 5.5817 18.7053 5.78353C18.8149 5.96248 18.8957 6.15757 18.9447 6.36164C19 6.59181 19 6.8364 19 7.32559Z" stroke="var(--stroke-0, black)" stroke-width="2" stroke-linecap="round" stroke-linejoin="round"/>
</svg>
