<svg preserveAspectRatio="none" width="100%" height="100%" overflow="visible" style="display: block;" viewBox="0 0 22.0004 22.0004" fill="none" xmlns="http://www.w3.org/2000/svg">
<path id="Icon" d="M3.93019 3.93019L18.0702 18.0702M1.00019 7.52293V14.4774C1.00019 14.722 1.00019 14.8443 1.02782 14.9594C1.05232 15.0615 1.09272 15.159 1.14755 15.2485C1.20939 15.3494 1.29587 15.4359 1.46882 15.6088L6.39156 20.5316C6.56451 20.7045 6.65099 20.791 6.75191 20.8528C6.84138 20.9077 6.93892 20.9481 7.04096 20.9726C7.15605 21.0002 7.27834 21.0002 7.52293 21.0002H14.4774C14.722 21.0002 14.8443 21.0002 14.9594 20.9726C15.0615 20.9481 15.159 20.9077 15.2485 20.8528C15.3494 20.791 15.4359 20.7045 15.6088 20.5316L20.5316 15.6088C20.7045 15.4359 20.791 15.3494 20.8528 15.2485C20.9077 15.159 20.9481 15.0615 20.9726 14.9594C21.0002 14.8443 21.0002 14.722 21.0002 14.4774V7.52293C21.0002 7.27834 21.0002 7.15605 20.9726 7.04096C20.9481 6.93892 20.9077 6.84138 20.8528 6.75191C20.791 6.65099 20.7045 6.56451 20.5316 6.39156L15.6088 1.46882C15.4359 1.29587 15.3494 1.20939 15.2485 1.14755C15.159 1.09272 15.0615 1.05232 14.9594 1.02782C14.8443 1.00019 14.722 1.00019 14.4774 1.00019H7.52293C7.27834 1.00019 7.15605 1.00019 7.04096 1.02782C6.93892 1.05232 6.84138 1.09272 6.75191 1.14755C6.65099 1.20939 6.56451 1.29587 6.39156 1.46882L1.46882 6.39156C1.29587 6.56451 1.20939 6.65099 1.14755 6.75191C1.09272 6.84138 1.05232 6.93892 1.02782 7.04096C1.00019 7.15605 1.00019 7.27834 1.00019 7.52293Z" stroke="var(--stroke-0, black)" stroke-width="2" stroke-linecap="round" stroke-linejoin="round"/>
</svg>
