<svg preserveAspectRatio="none" width="100%" height="100%" overflow="visible" style="display: block;" viewBox="0 0 22 22" fill="none" xmlns="http://www.w3.org/2000/svg">
<path id="Icon" d="M11 1V3.5M11 1C5.47715 1 1 5.47715 1 11M11 1C16.5228 1 21 5.47715 21 11M11 18.5V21M11 21C16.5228 21 21 16.5228 21 11M11 21C5.47715 21 1 16.5228 1 11M3.5 11H1M21 11H18.5M18.0784 18.0784L16.3047 16.3047M3.92163 18.0784L5.69715 16.3029M3.92163 4L5.65808 5.73645M18.0784 4L12.4999 9.5M13 11C13 12.1046 12.1046 13 11 13C9.89543 13 9 12.1046 9 11C9 9.89543 9.89543 9 11 9C12.1046 9 13 9.89543 13 11Z" stroke="var(--stroke-0, black)" stroke-width="2" stroke-linecap="round" stroke-linejoin="round"/>
</svg>
