<svg preserveAspectRatio="none" width="100%" height="100%" overflow="visible" style="display: block;" viewBox="0 0 22.0002 20.0001" fill="none" xmlns="http://www.w3.org/2000/svg">
<path id="Icon" d="M3.00009 5.99668C2.83608 5.99245 2.71698 5.98296 2.60991 5.96166C1.81653 5.80384 1.19633 5.18365 1.03852 4.39027C1.00009 4.19707 1.00009 3.96474 1.00009 3.50009C1.00009 3.03543 1.00009 2.8031 1.03852 2.60991C1.19633 1.81653 1.81653 1.19633 2.60991 1.03852C2.8031 1.00009 3.03543 1.00009 3.50009 1.00009H18.5001C18.9647 1.00009 19.1971 1.00009 19.3903 1.03852C20.1836 1.19633 20.8038 1.81653 20.9617 2.60991C21.0001 2.8031 21.0001 3.03543 21.0001 3.50009C21.0001 3.96474 21.0001 4.19707 20.9617 4.39027C20.8038 5.18365 20.1836 5.80384 19.3903 5.96166C19.2832 5.98296 19.1641 5.99245 19.0001 5.99668M9.00009 11.0001H13.0001M3.00009 6.00009H19.0001V14.2001C19.0001 15.8802 19.0001 16.7203 18.6731 17.3621C18.3855 17.9265 17.9265 18.3855 17.3621 18.6731C16.7203 19.0001 15.8802 19.0001 14.2001 19.0001H7.80009C6.11993 19.0001 5.27985 19.0001 4.63812 18.6731C4.07363 18.3855 3.61469 17.9265 3.32707 17.3621C3.00009 16.7203 3.00009 15.8802 3.00009 14.2001V6.00009Z" stroke="var(--stroke-0, black)" stroke-width="2" stroke-linecap="round" stroke-linejoin="round"/>
</svg>
