<svg preserveAspectRatio="none" width="100%" height="100%" overflow="visible" style="display: block;" viewBox="0 0 22.0005 19.7578" fill="none" xmlns="http://www.w3.org/2000/svg">
<path id="Icon" d="M1.00023 2.60001C1.00023 2.03995 1.00023 1.75993 1.10922 1.54601C1.2051 1.35785 1.35808 1.20487 1.54624 1.109C1.76015 1.00001 2.04018 1.00001 2.60023 1.00001H19.4002C19.9603 1.00001 20.2403 1.00001 20.4542 1.109C20.6424 1.20487 20.7954 1.35785 20.8912 1.54601C21.0002 1.75993 21.0002 2.03995 21.0002 2.60001V3.2694C21.0002 3.5382 21.0002 3.67259 20.9674 3.79757C20.9383 3.90831 20.8904 4.01324 20.8257 4.10777C20.7528 4.21444 20.6512 4.30246 20.4481 4.4785L14.0523 10.0215C13.8492 10.1976 13.7477 10.2856 13.6747 10.3922C13.6101 10.4868 13.5622 10.5917 13.5331 10.7024C13.5002 10.8274 13.5002 10.9618 13.5002 11.2306V16.4584C13.5002 16.6539 13.5002 16.7517 13.4687 16.8363C13.4408 16.911 13.3955 16.9779 13.3365 17.0315C13.2697 17.0922 13.1789 17.1285 12.9973 17.2012L9.59734 18.5612C9.2298 18.7082 9.04603 18.7817 8.8985 18.751C8.7695 18.7242 8.65628 18.6476 8.58348 18.5378C8.50023 18.4122 8.50023 18.2142 8.50023 17.8184V11.2306C8.50023 10.9618 8.50023 10.8274 8.46738 10.7024C8.43828 10.5917 8.39037 10.4868 8.32574 10.3922C8.25281 10.2856 8.15125 10.1976 7.94812 10.0215L1.55234 4.4785C1.34921 4.30246 1.24765 4.21444 1.17472 4.10777C1.11009 4.01324 1.06218 3.90831 1.03308 3.79757C1.00023 3.67259 1.00023 3.5382 1.00023 3.2694V2.60001Z" stroke="var(--stroke-0, black)" stroke-width="2" stroke-linecap="round" stroke-linejoin="round"/>
</svg>
