<svg preserveAspectRatio="none" width="100%" height="100%" overflow="visible" style="display: block;" viewBox="0 0 20 20.0002" fill="none" xmlns="http://www.w3.org/2000/svg">
<path id="Icon" d="M4 15.0001C4 15.9301 4 16.3951 4.10222 16.7766C4.37962 17.8118 5.18827 18.6205 6.22354 18.8979C6.60504 19.0001 7.07003 19.0001 8 19.0001H14.2C15.8802 19.0001 16.7202 19.0001 17.362 18.6731C17.9265 18.3855 18.3854 17.9266 18.673 17.3621C19 16.7203 19 15.8803 19 14.2001V5.8001C19 4.11994 19 3.27986 18.673 2.63813C18.3854 2.07364 17.9265 1.6147 17.362 1.32708C16.7202 1.0001 15.8802 1.0001 14.2 1.0001H8C7.07003 1.0001 6.60504 1.0001 6.22354 1.10232C5.18827 1.37972 4.37962 2.18836 4.10222 3.22364C4 3.60514 4 4.07013 4 5.0001M10 6.0001L14 10.0001M14 10.0001L10 14.0001M14 10.0001H1" stroke="var(--stroke-0, black)" stroke-width="2" stroke-linecap="round" stroke-linejoin="round"/>
</svg>
