<svg preserveAspectRatio="none" width="100%" height="100%" overflow="visible" style="display: block;" viewBox="0 0 22 21.9303" fill="none" xmlns="http://www.w3.org/2000/svg">
<path id="Icon" d="M5.00001 19.0174H7.6103C7.95063 19.0174 8.28889 19.0579 8.61882 19.1389L11.3769 19.8092C11.9753 19.955 12.5988 19.9691 13.2035 19.8517L16.253 19.2584C17.0585 19.1015 17.7996 18.7157 18.3803 18.1508L20.5379 16.052C21.154 15.4536 21.154 14.4827 20.5379 13.8834C19.9832 13.3437 19.1047 13.283 18.4771 13.7406L15.9626 15.5751C15.6025 15.8384 15.1643 15.9801 14.7137 15.9801H12.2855L13.8311 15.9801C14.7022 15.9801 15.4079 15.2936 15.4079 14.4462V14.1394C15.4079 13.4358 14.9156 12.8222 14.2141 12.6522L11.8286 12.072C11.4404 11.9779 11.0428 11.9303 10.6431 11.9303C9.67834 11.9303 7.9319 12.7291 7.9319 12.7291L5.00001 13.9552M1.00001 13.5303L1.00001 19.3303C1.00001 19.8903 1 20.1704 1.109 20.3843C1.20487 20.5724 1.35785 20.7254 1.54601 20.8213C1.75993 20.9303 2.03995 20.9303 2.6 20.9303H3.4C3.96006 20.9303 4.24008 20.9303 4.454 20.8213C4.64216 20.7254 4.79514 20.5724 4.89101 20.3843C5.00001 20.1704 5.00001 19.8903 5.00001 19.3303V13.5303C5.00001 12.9702 5 12.6902 4.89101 12.4763C4.79514 12.2881 4.64216 12.1352 4.454 12.0393C4.24008 11.9303 3.96006 11.9303 3.40001 11.9303H2.60001C2.03995 11.9303 1.75993 11.9303 1.54601 12.0393C1.35785 12.1352 1.20487 12.2881 1.109 12.4763C1.00001 12.6902 1.00001 12.9702 1.00001 13.5303ZM16.1914 2.52254C15.5946 1.27368 14.2186 0.612073 12.8804 1.25066C11.5423 1.88925 10.9722 3.40367 11.5325 4.73311C11.8787 5.55475 12.8708 7.15029 13.5781 8.24932C13.8394 8.6554 13.9701 8.85844 14.161 8.97722C14.3247 9.0791 14.5297 9.13401 14.7224 9.12764C14.9471 9.12021 15.1618 9.00971 15.5912 8.78872C16.7532 8.1906 18.4101 7.30484 19.1208 6.76641C20.2707 5.89521 20.5556 4.29386 19.6947 3.07653C18.8338 1.85919 17.3327 1.73941 16.1914 2.52254Z" stroke="var(--stroke-0, black)" stroke-width="2" stroke-linecap="round" stroke-linejoin="round"/>
</svg>
