<svg preserveAspectRatio="none" width="100%" height="100%" overflow="visible" style="display: block;" viewBox="0 0 15.8387 22" fill="none" xmlns="http://www.w3.org/2000/svg">
<path id="Icon" d="M7.91937 14L7.91938 21M3.91938 6.30814V8.43876C3.91938 8.64677 3.91938 8.75078 3.89896 8.85027C3.88084 8.93853 3.85088 9.02394 3.80989 9.10418C3.76369 9.19461 3.69871 9.27583 3.56877 9.43827L1.99899 11.4005C1.33325 12.2327 1.00038 12.6488 1 12.9989C0.999672 13.3035 1.13814 13.5916 1.37615 13.7815C1.64983 14 2.18268 14 3.24837 14H12.5904C13.6561 14 14.1889 14 14.4626 13.7815C14.7006 13.5916 14.8391 13.3035 14.8387 12.9989C14.8384 12.6488 14.5055 12.2327 13.8398 11.4005L12.27 9.43827C12.14 9.27583 12.0751 9.19461 12.0289 9.10418C11.9879 9.02394 11.9579 8.93853 11.9398 8.85027C11.9194 8.75078 11.9194 8.64677 11.9194 8.43876V6.30814C11.9194 6.19301 11.9194 6.13545 11.9259 6.07868C11.9317 6.02825 11.9413 5.97834 11.9546 5.92937C11.9697 5.87425 11.9911 5.8208 12.0338 5.71391L13.0417 3.19423C13.3357 2.45914 13.4827 2.0916 13.4214 1.79655C13.3678 1.53854 13.2145 1.31211 12.9949 1.16651C12.7437 1 12.3478 1 11.5561 1H4.28263C3.49091 1 3.09506 1 2.84388 1.16651C2.62423 1.31211 2.47094 1.53854 2.41732 1.79655C2.35601 2.0916 2.50303 2.45914 2.79707 3.19423L3.80494 5.71391C3.84769 5.8208 3.86907 5.87425 3.88411 5.92937C3.89747 5.97834 3.90709 6.02825 3.91287 6.07868C3.91938 6.13545 3.91938 6.19301 3.91938 6.30814Z" stroke="var(--stroke-0, black)" stroke-width="2" stroke-linecap="round" stroke-linejoin="round"/>
</svg>
