<svg preserveAspectRatio="none" width="100%" height="100%" overflow="visible" style="display: block;" viewBox="0 0 20.0001 20.0001" fill="none" xmlns="http://www.w3.org/2000/svg">
<path id="Icon" d="M5 1.0001H12.6745C13.1637 1.0001 13.4083 1.0001 13.6385 1.05536C13.8425 1.10436 14.0376 1.18516 14.2166 1.29482C14.4184 1.4185 14.5914 1.59146 14.9373 1.93736L18.0627 5.06284C18.4086 5.40875 18.5816 5.5817 18.7053 5.78353C18.8149 5.96248 18.8957 6.15757 18.9447 6.36164C19 6.59181 19 6.8364 19 7.32559V15.0001M10.5 8.0001H6.6C6.03995 8.0001 5.75992 8.0001 5.54601 7.89111C5.35785 7.79523 5.20487 7.64225 5.109 7.45409C5 7.24018 5 6.96015 5 6.4001V4.5001M11.5 19.0001V14.6001C11.5 14.04 11.5 13.76 11.391 13.5461C11.2951 13.3579 11.1422 13.205 10.954 13.1091C10.7401 13.0001 10.4601 13.0001 9.9 13.0001H6.6C6.03995 13.0001 5.75992 13.0001 5.54601 13.1091C5.35785 13.205 5.20487 13.3579 5.109 13.5461C5 13.76 5 14.04 5 14.6001V19.0001M15.5 8.16284V15.8001C15.5 16.9202 15.5 17.4803 15.282 17.9081C15.0903 18.2844 14.7843 18.5904 14.408 18.7821C13.9802 19.0001 13.4201 19.0001 12.3 19.0001H4.2C3.0799 19.0001 2.51984 19.0001 2.09202 18.7821C1.7157 18.5904 1.40974 18.2844 1.21799 17.9081C1 17.4803 1 16.9202 1 15.8001V7.7001C1 6.58 1 6.01994 1.21799 5.59212C1.40974 5.2158 1.7157 4.90984 2.09202 4.71809C2.51984 4.5001 3.0799 4.5001 4.2 4.5001H11.8373C12.0819 4.5001 12.2041 4.5001 12.3192 4.52773C12.4213 4.55223 12.5188 4.59263 12.6083 4.64746C12.7092 4.7093 12.7957 4.79578 12.9686 4.96873L15.0314 7.03147C15.2043 7.20442 15.2908 7.2909 15.3526 7.39182C15.4075 7.48129 15.4479 7.57883 15.4724 7.68087C15.5 7.79596 15.5 7.91825 15.5 8.16284Z" stroke="var(--stroke-0, black)" stroke-width="2" stroke-linecap="round" stroke-linejoin="round"/>
</svg>
